<?xml version="1.0" encoding="UTF-8"?>
<svg width="30px" height="30px" viewBox="0 0 30 30" version="1.1" xmlns="http://www.w3.org/2000/svg" xmlns:xlink="http://www.w3.org/1999/xlink">
    <title>Artboard</title>
    <g id="Artboard" stroke="none" stroke-width="1" fill="none" fill-rule="evenodd">
        <g id="bolt_black_24dp-(1)" transform="translate(0.494253, 0.551724)">
            <rect id="Rectangle" x="0" y="0" width="27.5862069" height="27.5862069"></rect>
            <path d="M17.4287468,2.29885057 L16.2793215,10.3448276 L18.9885057,10.3448276 C19.7810753,10.3448276 20.2398346,10.6955891 20.483062,11.0969144 C20.6913682,11.4406195 20.8605034,11.9471337 20.4892991,12.740161 C18.2364314,16.6737347 16.5439192,19.6317767 15.4051912,21.6229438 L15.1774919,22.0211162 C15.1408583,22.0851798 15.1048826,22.1480945 15.0695646,22.2098606 L14.6772996,22.8959432 C13.9858983,24.10535 13.6418368,24.7078941 13.6418368,24.7078941 C13.6418368,24.7078941 13.5315513,24.9010336 13.3111494,25.2873563 L13.3111494,25.2873563 L10.1689544,25.2873563 L11.3183797,17.2413793 L8.26165127,17.2413793 C5.83349098,15.642949 7.12034373,14.7452284 7.30164784,14.5616222 C8.7418952,12.0178257 10.8667115,8.29325323 13.6797753,3.3622667 L13.6797753,3.3622667 L14.2864395,2.29885057 L17.4287468,2.29885057 Z" id="Path" stroke="#354052" stroke-width="2.29885057" fill-opacity="0" fill="#000000" fill-rule="nonzero" stroke-linejoin="round"></path>
        </g>
    </g>
</svg>