<?xml version="1.0" encoding="UTF-8"?>
<svg width="30px" height="30px" viewBox="0 0 30 30" version="1.1" xmlns="http://www.w3.org/2000/svg" xmlns:xlink="http://www.w3.org/1999/xlink">
    <title>Artboard Copy</title>
    <g id="Artboard-Copy" stroke="none" stroke-width="1" fill="none" fill-rule="evenodd">
        <g id="attach_file_black_24dp" transform="translate(0.942529, 0.275862)">
            <polygon id="Path" points="0 0 27.5862069 0 27.5862069 27.5862069 0 27.5862069"></polygon>
            <path d="M18.9655172,6.89655172 L18.9655172,20.1149425 C18.9655172,22.6551724 16.908046,24.7126437 14.3678161,24.7126437 C11.8275862,24.7126437 9.77011494,22.6551724 9.77011494,20.1149425 L9.77011494,5.74712644 C9.77011494,4.16091954 11.0574713,2.87356322 12.6436782,2.87356322 C14.2298851,2.87356322 15.5172414,4.16091954 15.5172414,5.74712644 L15.5172414,17.816092 C15.5172414,18.4482759 15,18.9655172 14.3678161,18.9655172 C13.7356322,18.9655172 13.2183908,18.4482759 13.2183908,17.816092 L13.2183908,6.89655172 L11.4942529,6.89655172 L11.4942529,17.816092 C11.4942529,19.4022989 12.7816092,20.6896552 14.3678161,20.6896552 C15.954023,20.6896552 17.2413793,19.4022989 17.2413793,17.816092 L17.2413793,5.74712644 C17.2413793,3.20689655 15.183908,1.14942529 12.6436782,1.14942529 C10.1034483,1.14942529 8.04597701,3.20689655 8.04597701,5.74712644 L8.04597701,20.1149425 C8.04597701,23.6091954 10.8735632,26.4367816 14.3678161,26.4367816 C17.862069,26.4367816 20.6896552,23.6091954 20.6896552,20.1149425 L20.6896552,6.89655172 L18.9655172,6.89655172 Z" id="Path" fill="#354052"></path>
        </g>
    </g>
</svg>