<?xml version="1.0" encoding="UTF-8"?>
<svg width="83px" height="37px" viewBox="0 0 83 37" version="1.1" xmlns="http://www.w3.org/2000/svg" xmlns:xlink="http://www.w3.org/1999/xlink">
    <title>Group 20</title>
    <g id="Folders" stroke="none" stroke-width="1" fill="none" fill-rule="evenodd">
        <g id="Group-20" transform="translate(0.000000, 1.610860)">
            <g id="Group-4">
                <path d="M9.5,2.13162821e-14 L23.7034378,2.13162821e-14 C24.9951295,1.66381101e-14 26.2245393,0.555064695 27.0787963,1.5239364 L32,7.10541218 L32,7.10541218 L32,29.8891403 C32,32.3744216 29.9852814,34.3891403 27.5,34.3891403 L9.5,34.3891403 C7.01471863,34.3891403 5,32.3744216 5,29.8891403 L5,4.5 C5,2.01471863 7.01471863,2.17728209e-14 9.5,2.13162821e-14 Z" id="Rectangle" stroke="#354052" stroke-width="2" fill="#EEF2F4"></path>
                <polyline id="Path-3" stroke="#354052" stroke-width="2" stroke-linejoin="round" points="32 7.60409813 23.9158608 7.60409813 23.9158608 -4.57023232e-17"></polyline>
                <g id="Group-19" transform="translate(0.000000, 10.000000)">
                    <rect id="Rectangle" fill="#FF0000" x="0" y="0" width="24" height="10" rx="2.4"></rect>
                    <g id="PDF" transform="translate(4.291200, 1.760000)" fill="#FFFFFF" fill-rule="nonzero">
                        <path d="M0,0 L2.4192,0 C2.752,0 3.0704,0.0336 3.3744,0.1008 C3.6784,0.168 3.944,0.2832 4.1712,0.4464 C4.3984,0.6096 4.5792,0.824 4.7136,1.0896 C4.848,1.3552 4.9152,1.6832 4.9152,2.0736 C4.9152,2.4576 4.8464,2.7872 4.7088,3.0624 C4.5712,3.3376 4.3872,3.5632 4.1568,3.7392 C3.9264,3.9152 3.6608,4.0464 3.36,4.1328 C3.0592,4.2192 2.7456,4.2624 2.4192,4.2624 L1.6512,4.2624 L1.6512,6.24 L0,6.24 L0,0 Z M2.3424,2.9568 C2.6688,2.9568 2.9104,2.88 3.0672,2.7264 C3.224,2.5728 3.3024,2.3552 3.3024,2.0736 C3.3024,1.792 3.2192,1.5936 3.0528,1.4784 C2.8864,1.3632 2.6496,1.3056 2.3424,1.3056 L1.6512,1.3056 L1.6512,2.9568 L2.3424,2.9568 Z" id="Shape"></path>
                        <path d="M5.9328,0 L7.776,0 C8.2496,0 8.6832,0.0576 9.0768,0.1728 C9.4704,0.288 9.808,0.4704 10.0896,0.72 C10.3712,0.9696 10.5904,1.2896 10.7472,1.68 C10.904,2.0704 10.9824,2.5408 10.9824,3.0912 C10.9824,3.6416 10.9056,4.1152 10.752,4.512 C10.5984,4.9088 10.3824,5.2352 10.104,5.4912 C9.8256,5.7472 9.496,5.936 9.1152,6.0576 C8.7344,6.1792 8.32,6.24 7.872,6.24 L5.9328,6.24 L5.9328,0 Z M7.68,4.9152 C7.904,4.9152 8.1152,4.888 8.3136,4.8336 C8.512,4.7792 8.6832,4.6848 8.8272,4.5504 C8.9712,4.416 9.0848,4.2304 9.168,3.9936 C9.2512,3.7568 9.2928,3.456 9.2928,3.0912 C9.2928,2.7264 9.2512,2.4288 9.168,2.1984 C9.0848,1.968 8.9712,1.7888 8.8272,1.6608 C8.6832,1.5328 8.512,1.4448 8.3136,1.3968 C8.1152,1.3488 7.904,1.3248 7.68,1.3248 L7.584,1.3248 L7.584,4.9152 L7.68,4.9152 Z" id="Shape"></path>
                        <polygon id="Path" points="12.096 0 16.1664 0 16.1664 1.3824 13.7472 1.3824 13.7472 2.5728 15.8208 2.5728 15.8208 3.9552 13.7472 3.9552 13.7472 6.24 12.096 6.24"></polygon>
                    </g>
                </g>
                <line x1="10.5" y1="23.8119251" x2="26.517839" y2="23.8119251" id="Path-4" stroke="#354052" stroke-width="2" fill="#EEF2F4" stroke-linecap="round"></line>
                <line x1="10.5" y1="26.8119251" x2="26.517839" y2="26.8119251" id="Path-4" stroke="#354052" stroke-width="2" fill="#EEF2F4" stroke-linecap="round"></line>
                <line x1="10.5" y1="29.8119251" x2="18.517839" y2="29.8119251" id="Path-4" stroke="#354052" stroke-width="2" fill="#EEF2F4" stroke-linecap="round"></line>
            </g>
            <g id="PDF" transform="translate(44.771000, 10.393140)" fill="#354052" fill-rule="nonzero">
                <path d="M-4.54747351e-13,1.13686838e-13 L5.474,1.13686838e-13 C6.28666667,1.13686838e-13 7.0495,0.0805 7.7625,0.2415 C8.4755,0.4025 9.0965,0.670833333 9.6255,1.0465 C10.1545,1.42216667 10.5723333,1.9205 10.879,2.5415 C11.1856667,3.1625 11.339,3.92533333 11.339,4.83 C11.339,5.704 11.1818333,6.463 10.8675,7.107 C10.5531667,7.751 10.1276667,8.28 9.591,8.694 C9.05433333,9.108 8.43333333,9.41466667 7.728,9.614 C7.02266667,9.81333333 6.27133333,9.913 5.474,9.913 L3.381,9.913 L3.381,14.996 L-4.54747351e-13,14.996 L-4.54747351e-13,1.13686838e-13 Z M5.267,7.222 C7.107,7.222 8.027,6.42466667 8.027,4.83 C8.027,4.048 7.79316667,3.496 7.3255,3.174 C6.85783333,2.852 6.17166667,2.691 5.267,2.691 L3.381,2.691 L3.381,7.222 L5.267,7.222 Z" id="Shape"></path>
                <path d="M13.938,1.13686838e-13 L18.17,1.13686838e-13 C19.32,1.13686838e-13 20.355,0.145666667 21.275,0.437 C22.195,0.728333333 22.9846667,1.17683333 23.644,1.7825 C24.3033333,2.38816667 24.8093333,3.15866667 25.162,4.094 C25.5146667,5.02933333 25.691,6.141 25.691,7.429 C25.691,8.717 25.5146667,9.83633333 25.162,10.787 C24.8093333,11.7376667 24.311,12.5235 23.667,13.1445 C23.023,13.7655 22.2525,14.2293333 21.3555,14.536 C20.4585,14.8426667 19.458,14.996 18.354,14.996 L13.938,14.996 L13.938,1.13686838e-13 Z M17.963,12.259 C18.607,12.259 19.1896667,12.1746667 19.711,12.006 C20.2323333,11.8373333 20.677,11.5651667 21.045,11.1895 C21.413,10.8138333 21.7005,10.3193333 21.9075,9.706 C22.1145,9.09266667 22.218,8.33366667 22.218,7.429 C22.218,6.53966667 22.1145,5.79216667 21.9075,5.1865 C21.7005,4.58083333 21.413,4.09783333 21.045,3.7375 C20.677,3.37716667 20.2323333,3.12033333 19.711,2.967 C19.1896667,2.81366667 18.607,2.737 17.963,2.737 L17.319,2.737 L17.319,12.259 L17.963,12.259 Z" id="Shape"></path>
                <polygon id="Path" points="28.543 1.13686838e-13 37.996 1.13686838e-13 37.996 2.852 31.924 2.852 31.924 6.325 37.122 6.325 37.122 9.177 31.924 9.177 31.924 14.996 28.543 14.996"></polygon>
            </g>
        </g>
    </g>
</svg>