<?xml version="1.0" encoding="UTF-8"?>
<svg width="22px" height="22px" viewBox="0 0 22 22" version="1.1" xmlns="http://www.w3.org/2000/svg" xmlns:xlink="http://www.w3.org/1999/xlink">
    <title>image hover</title>
    <g id="Symbols" stroke="none" stroke-width="1" fill="none" fill-rule="evenodd">
        <g id="kanban-card" transform="translate(-16.000000, -84.000000)">
            <g id="image-hover" transform="translate(16.000000, 84.000000)">
                <rect id="Rectangle" fill="#F5F8FA" x="0" y="0" width="22" height="22" rx="4"></rect>
                <g id="image_FILL0_wght600_GRAD0_opsz48" transform="translate(5.000000, 5.000000)" fill="#B4BBC6" fill-rule="nonzero">
                    <path d="M1.26568758,12 C0.923898531,12 0.627503338,11.8744993 0.376502003,11.623498 C0.125500668,11.3724967 0,11.0761015 0,10.7343124 L0,1.28170895 C0,0.929238985 0.125500668,0.627503338 0.376502003,0.376502003 C0.627503338,0.125500668 0.923898531,0 1.26568758,0 L10.7182911,0 C11.070761,0 11.3724967,0.125500668 11.623498,0.376502003 C11.8744993,0.627503338 12,0.929238985 12,1.28170895 L12,10.7343124 C12,11.0761015 11.8744993,11.3724967 11.623498,11.623498 C11.3724967,11.8744993 11.070761,12 10.7182911,12 L1.26568758,12 Z M1.26568758,10.7343124 L10.7182911,10.7343124 L10.7182911,1.28170895 L1.26568758,1.28170895 L1.26568758,10.7343124 Z M1.9706275,9.34045394 L10.0293725,9.34045394 L7.56208278,5.99198932 L5.44726302,8.73164219 L3.95727637,6.69692924 L1.9706275,9.34045394 Z M1.26568758,10.7343124 L1.26568758,1.28170895 L1.26568758,10.7343124 Z" id="Shape"></path>
                </g>
            </g>
        </g>
    </g>
</svg>