<?xml version="1.0" encoding="UTF-8"?>
<svg width="22px" height="22px" viewBox="0 0 22 22" version="1.1" xmlns="http://www.w3.org/2000/svg" xmlns:xlink="http://www.w3.org/1999/xlink">
    <title>priority-urgent</title>
    <defs>
        <linearGradient x1="50%" y1="0%" x2="50%" y2="100%" id="linearGradient-1">
            <stop stop-color="#F71C1C" offset="0%"></stop>
            <stop stop-color="#F8712F" offset="31.5914554%"></stop>
            <stop stop-color="#F9AB44" offset="68.8893138%"></stop>
            <stop stop-color="#FAFF00" offset="100%"></stop>
        </linearGradient>
    </defs>
    <g id="Labels,-statuses,-etc." stroke="none" stroke-width="1" fill="none" fill-rule="evenodd">
        <g id="local_fire_department_black_24dp-(1)">
            <rect id="Rectangle" x="0" y="0" width="22" height="22"></rect>
            <path d="M17.8566667,11.3208333 C16.4175,7.58083333 11.2933333,7.37916667 12.5308333,1.94333333 C12.6225,1.54 12.1916667,1.22833333 11.8433333,1.43916667 C8.51583333,3.40083333 6.12333333,7.33333333 8.13083333,12.485 C8.29583333,12.9066667 7.80083333,13.3008333 7.44333333,13.0258333 C5.78416667,11.77 5.61,9.96416667 5.75666667,8.67166667 C5.81166667,8.195 5.18833333,7.96583333 4.9225,8.36 C4.29916667,9.31333333 3.66666667,10.8533333 3.66666667,13.1725 C4.015,18.3058333 8.35083333,19.8825 9.90916667,20.0841667 C12.1366667,20.3683333 14.5475,19.9558333 16.28,18.37 C18.1866667,16.6008333 18.8833333,13.7775 17.8566667,11.3208333 Z M9.35,15.9316667 C10.67,15.6108333 11.3483333,14.6575 11.5316667,13.8141667 C11.8341667,12.5033333 10.6516667,11.22 11.4491667,9.14833333 C11.7516667,10.8625 14.4466667,11.935 14.4466667,13.805 C14.52,16.1241667 12.0083333,18.1133333 9.35,15.9316667 Z" id="Shape" fill="url(#linearGradient-1)"></path>
        </g>
    </g>
</svg>