<?xml version="1.0" encoding="UTF-8"?>
<svg width="129px" height="106px" viewBox="0 0 129 106" version="1.1" xmlns="http://www.w3.org/2000/svg" xmlns:xlink="http://www.w3.org/1999/xlink">
    <title>Group 19</title>
    <defs>
        <path d="M5.616,0 L43.384,0 C46.4856312,4.0516649e-15 49,2.51436884 49,5.616 L49,19 L49,19 L0,19 L0,5.616 C5.08338153e-16,2.51436884 2.51436884,-3.1841802e-16 5.616,0 Z" id="path-1"></path>
        <filter x="-16.8%" y="-64.5%" width="133.7%" height="186.8%" filterUnits="objectBoundingBox" id="filter-2">
            <feMorphology radius="0.25" operator="dilate" in="SourceAlpha" result="shadowSpreadOuter1"></feMorphology>
            <feOffset dx="0" dy="-4" in="shadowSpreadOuter1" result="shadowOffsetOuter1"></feOffset>
            <feGaussianBlur stdDeviation="2" in="shadowOffsetOuter1" result="shadowBlurOuter1"></feGaussianBlur>
            <feComposite in="shadowBlurOuter1" in2="SourceAlpha" operator="out" result="shadowBlurOuter1"></feComposite>
            <feColorMatrix values="0 0 0 0 0   0 0 0 0 0   0 0 0 0 0  0 0 0 0.109964011 0" type="matrix" in="shadowBlurOuter1"></feColorMatrix>
        </filter>
        <path d="M95.5949179,53.036965 C94.0333302,51.4701566 92.7659177,51.9850089 92.7640624,54.1994802 L92.7544013,65.7313082 C92.7525507,67.940156 94.0318182,68.4929746 95.6295753,66.9488116 L97.9323364,64.7232928 L98.2115343,64.480408 L102.98767,64.4764021 C105.199692,64.4745468 105.730474,63.2064061 104.165386,61.6360852 L95.5949179,53.036965 Z" id="path-3"></path>
        <filter x="-67.7%" y="-24.2%" width="222.0%" height="179.2%" filterUnits="objectBoundingBox" id="filter-4">
            <feMorphology radius="0.65" operator="dilate" in="SourceAlpha" result="shadowSpreadOuter1"></feMorphology>
            <feOffset dx="0" dy="3" in="shadowSpreadOuter1" result="shadowOffsetOuter1"></feOffset>
            <feGaussianBlur stdDeviation="2.5" in="shadowOffsetOuter1" result="shadowBlurOuter1"></feGaussianBlur>
            <feComposite in="shadowBlurOuter1" in2="SourceAlpha" operator="out" result="shadowBlurOuter1"></feComposite>
            <feColorMatrix values="0 0 0 0 0   0 0 0 0 0   0 0 0 0 0  0 0 0 0.186461976 0" type="matrix" in="shadowBlurOuter1"></feColorMatrix>
        </filter>
    </defs>
    <g id="Product" stroke="none" stroke-width="1" fill="none" fill-rule="evenodd">
        <g id="project-zero---added" transform="translate(-919.000000, -489.000000)">
            <g id="Group-19" transform="translate(920.000000, 490.000000)">
                <g id="Group-18">
                    <rect id="Rectangle" stroke="#E6EAEE" fill="#FFFFFF" x="0" y="0" width="127" height="104" rx="7"></rect>
                    <g id="Group-17" transform="translate(8.000000, 29.000000)" fill="#F5F8FC">
                        <rect id="Rectangle" x="0" y="0" width="110" height="30"></rect>
                        <rect id="Rectangle" x="3.90798505e-14" y="37" width="32.8865979" height="23"></rect>
                        <rect id="Rectangle" x="38.556701" y="37" width="32.8865979" height="23"></rect>
                        <rect id="Rectangle" x="77.1134021" y="37" width="32.8865979" height="23"></rect>
                    </g>
                    <path d="M7,0 L120,0 C123.865993,-7.10171439e-16 127,3.13400675 127,7 L127,19 L127,19 L0,19 L0,7 C-4.73447626e-16,3.13400675 3.13400675,7.10171439e-16 7,0 Z" id="Rectangle" stroke="#E6EAEE" fill="#FFFFFF"></path>
                    <circle id="Oval" fill="#E6EAEE" cx="11" cy="10" r="3"></circle>
                    <circle id="Oval" fill="#E6EAEE" cx="21" cy="10" r="3"></circle>
                    <circle id="Oval" fill="#E6EAEE" cx="31" cy="10" r="3"></circle>
                </g>
                <g id="Group-16" transform="translate(117.500000, 58.500000) scale(-1, -1) rotate(90.000000) translate(-117.500000, -58.500000) translate(93.000000, 49.000000)">
                    <g id="Rectangle">
                        <use fill="black" fill-opacity="1" filter="url(#filter-2)" xlink:href="#path-1"></use>
                        <use stroke="#FFFFFF" stroke-width="0.5" fill="#E96400" fill-rule="evenodd" xlink:href="#path-1"></use>
                    </g>
                    <path d="M8.25408181,11.7559626 L8.25408181,11.0595786 L6.80515381,11.0595786 L6.80515381,8.09433056 L5.97960181,8.09433056 L5.97960181,11.7559626 L8.25408181,11.7559626 Z M10.0680498,11.8233546 C10.2365298,11.8233546 10.4078178,11.7952746 10.5819138,11.7391146 C10.7560098,11.6829546 10.9141938,11.6062026 11.0564658,11.5088586 L11.0564658,11.5088586 L10.7812818,11.0090346 C10.5791058,11.1325866 10.3788018,11.1943626 10.1803698,11.1943626 C9.99316981,11.1943626 9.83498581,11.1466266 9.70581781,11.0511546 C9.57664981,10.9556826 9.49334581,10.8012426 9.45590581,10.5878346 L9.45590581,10.5878346 L11.1238578,10.5878346 C11.1313458,10.5541386 11.1388338,10.5064026 11.1463218,10.4446266 C11.1538098,10.3828506 11.1575538,10.3145226 11.1575538,10.2396426 C11.1575538,10.0486986 11.1332178,9.87179456 11.0845458,9.70893056 C11.0358738,9.54606656 10.9619298,9.40473056 10.8627138,9.28492256 C10.7634978,9.16511456 10.6399458,9.07151456 10.4920578,9.00412256 C10.3441698,8.93673056 10.1710098,8.90303456 9.97257781,8.90303456 C9.80409781,8.90303456 9.64123381,8.93673056 9.48398581,9.00412256 C9.32673781,9.07151456 9.18727381,9.16792256 9.06559381,9.29334656 C8.94391381,9.41877056 8.84563381,9.57227456 8.77075381,9.75385856 C8.69587381,9.93544256 8.65843381,10.1385546 8.65843381,10.3631946 C8.65843381,10.5953226 8.69400181,10.8012426 8.76513781,10.9809546 C8.83627381,11.1606666 8.93548981,11.3132346 9.06278581,11.4386586 C9.19008181,11.5640826 9.33984181,11.6595546 9.51206581,11.7250746 C9.68428981,11.7905946 9.86961781,11.8233546 10.0680498,11.8233546 Z M10.4555538,10.0767786 L9.45028981,10.0767786 C9.48024181,9.88957856 9.54482581,9.75198656 9.64404181,9.66400256 C9.74325781,9.57601856 9.85838581,9.53202656 9.98942581,9.53202656 C10.1579058,9.53202656 10.2777138,9.58257056 10.3488498,9.68365856 C10.4199858,9.78474656 10.4555538,9.91578656 10.4555538,10.0767786 L10.4555538,10.0767786 Z M12.4548498,11.8233546 C12.6120978,11.8233546 12.7571778,11.7905946 12.8900898,11.7250746 C13.0230018,11.6595546 13.1493618,11.5743786 13.2691698,11.4695466 L13.2691698,11.4695466 L13.2860178,11.4695466 L13.3477938,11.7559626 L14.0217138,11.7559626 L14.0217138,10.1610186 C14.0217138,9.73045856 13.9271778,9.41315456 13.7381058,9.20910656 C13.5490338,9.00505856 13.2747858,8.90303456 12.9153618,8.90303456 C12.6944658,8.90303456 12.4857378,8.93673056 12.2891778,9.00412256 C12.0926178,9.07151456 11.9044818,9.15949856 11.7247698,9.26807456 L11.7247698,9.26807456 L12.0168018,9.81282656 C12.1515858,9.73420256 12.2788818,9.67242656 12.3986898,9.62749856 C12.5184978,9.58257056 12.6383058,9.56010656 12.7581138,9.56010656 C12.9078738,9.56010656 13.0164498,9.59661056 13.0838418,9.66961856 C13.1512338,9.74262656 13.1886738,9.84090656 13.1961618,9.96445856 C12.6457938,10.0206186 12.2470578,10.1310666 11.9999538,10.2958026 C11.7528498,10.4605386 11.6292978,10.6889226 11.6292978,10.9809546 C11.6292978,11.1007626 11.6489538,11.2112106 11.6882658,11.3122986 C11.7275778,11.4133866 11.7828018,11.5023066 11.8539378,11.5790586 C11.9250738,11.6558106 12.0111858,11.7157146 12.1122738,11.7587706 C12.2133618,11.8018266 12.3275538,11.8233546 12.4548498,11.8233546 Z M12.7356498,11.1831306 C12.6383058,11.1831306 12.5606178,11.1616026 12.5025858,11.1185466 C12.4445538,11.0754906 12.4155378,11.0090346 12.4155378,10.9191786 C12.4155378,10.8106026 12.4716978,10.7170026 12.5840178,10.6383786 C12.6963378,10.5597546 12.9003858,10.4998506 13.1961618,10.4586666 L13.1961618,10.4586666 L13.1961618,10.9472586 C13.1212818,11.0221386 13.0501458,11.0801706 12.9827538,11.1213546 C12.9153618,11.1625386 12.8329938,11.1831306 12.7356498,11.1831306 Z M16.3242738,11.7559626 L17.2340658,8.97042656 L16.4422098,8.97042656 L16.0771698,10.2845706 C16.0397298,10.4230986 16.0032258,10.5644346 15.9676578,10.7085786 C15.9320898,10.8527226 15.8974578,10.9978026 15.8637618,11.1438186 L15.8637618,11.1438186 L15.8412978,11.1438186 C15.8038578,10.9978026 15.7673538,10.8527226 15.7317858,10.7085786 C15.6962178,10.5644346 15.6597138,10.4230986 15.6222738,10.2845706 L15.6222738,10.2845706 L15.2628498,8.97042656 L14.4316818,8.97042656 L15.3695538,11.7559626 L16.3242738,11.7559626 Z M18.9132498,11.8233546 C19.0817298,11.8233546 19.2530178,11.7952746 19.4271138,11.7391146 C19.6012098,11.6829546 19.7593938,11.6062026 19.9016658,11.5088586 L19.9016658,11.5088586 L19.6264818,11.0090346 C19.4243058,11.1325866 19.2240018,11.1943626 19.0255698,11.1943626 C18.8383698,11.1943626 18.6801858,11.1466266 18.5510178,11.0511546 C18.4218498,10.9556826 18.3385458,10.8012426 18.3011058,10.5878346 L18.3011058,10.5878346 L19.9690578,10.5878346 C19.9765458,10.5541386 19.9840338,10.5064026 19.9915218,10.4446266 C19.9990098,10.3828506 20.0027538,10.3145226 20.0027538,10.2396426 C20.0027538,10.0486986 19.9784178,9.87179456 19.9297458,9.70893056 C19.8810738,9.54606656 19.8071298,9.40473056 19.7079138,9.28492256 C19.6086978,9.16511456 19.4851458,9.07151456 19.3372578,9.00412256 C19.1893698,8.93673056 19.0162098,8.90303456 18.8177778,8.90303456 C18.6492978,8.90303456 18.4864338,8.93673056 18.3291858,9.00412256 C18.1719378,9.07151456 18.0324738,9.16792256 17.9107938,9.29334656 C17.7891138,9.41877056 17.6908338,9.57227456 17.6159538,9.75385856 C17.5410738,9.93544256 17.5036338,10.1385546 17.5036338,10.3631946 C17.5036338,10.5953226 17.5392018,10.8012426 17.6103378,10.9809546 C17.6814738,11.1606666 17.7806898,11.3132346 17.9079858,11.4386586 C18.0352818,11.5640826 18.1850418,11.6595546 18.3572658,11.7250746 C18.5294898,11.7905946 18.7148178,11.8233546 18.9132498,11.8233546 Z M19.3007538,10.0767786 L18.2954898,10.0767786 C18.3254418,9.88957856 18.3900258,9.75198656 18.4892418,9.66400256 C18.5884578,9.57601856 18.7035858,9.53202656 18.8346258,9.53202656 C19.0031058,9.53202656 19.1229138,9.58257056 19.1940498,9.68365856 C19.2651858,9.78474656 19.3007538,9.91578656 19.3007538,10.0767786 L19.3007538,10.0767786 Z M22.7096658,11.7559626 L22.7096658,9.61626656 L23.2094898,9.61626656 L23.2094898,8.97042656 L22.7096658,8.97042656 L22.7096658,8.80194656 C22.7096658,8.65967456 22.7377458,8.55765056 22.7939058,8.49587456 C22.8500658,8.43409856 22.9286898,8.40321056 23.0297778,8.40321056 C23.1158898,8.40321056 23.2113618,8.42193056 23.3161938,8.45937056 L23.3161938,8.45937056 L23.4678258,7.85284256 C23.4041778,7.83037856 23.3246178,7.80791456 23.2291458,7.78545056 C23.1336738,7.76298656 23.0279058,7.75175456 22.9118418,7.75175456 C22.7246418,7.75175456 22.5655218,7.77983456 22.4344818,7.83599456 C22.3034418,7.89215456 22.1967378,7.96890656 22.1143698,8.06625056 C22.0320018,8.16359456 21.9730338,8.27778656 21.9374658,8.40882656 C21.9018978,8.53986656 21.8841138,8.67839456 21.8841138,8.82441056 L21.8841138,8.82441056 L21.8841138,8.97604256 L21.5134578,9.00412256 L21.5134578,9.61626656 L21.8841138,9.61626656 L21.8841138,11.7559626 L22.7096658,11.7559626 Z M24.9055218,11.8233546 C25.0740018,11.8233546 25.2452898,11.7952746 25.4193858,11.7391146 C25.5934818,11.6829546 25.7516658,11.6062026 25.8939378,11.5088586 L25.8939378,11.5088586 L25.6187538,11.0090346 C25.4165778,11.1325866 25.2162738,11.1943626 25.0178418,11.1943626 C24.8306418,11.1943626 24.6724578,11.1466266 24.5432898,11.0511546 C24.4141218,10.9556826 24.3308178,10.8012426 24.2933778,10.5878346 L24.2933778,10.5878346 L25.9613298,10.5878346 C25.9688178,10.5541386 25.9763058,10.5064026 25.9837938,10.4446266 C25.9912818,10.3828506 25.9950258,10.3145226 25.9950258,10.2396426 C25.9950258,10.0486986 25.9706898,9.87179456 25.9220178,9.70893056 C25.8733458,9.54606656 25.7994018,9.40473056 25.7001858,9.28492256 C25.6009698,9.16511456 25.4774178,9.07151456 25.3295298,9.00412256 C25.1816418,8.93673056 25.0084818,8.90303456 24.8100498,8.90303456 C24.6415698,8.90303456 24.4787058,8.93673056 24.3214578,9.00412256 C24.1642098,9.07151456 24.0247458,9.16792256 23.9030658,9.29334656 C23.7813858,9.41877056 23.6831058,9.57227456 23.6082258,9.75385856 C23.5333458,9.93544256 23.4959058,10.1385546 23.4959058,10.3631946 C23.4959058,10.5953226 23.5314738,10.8012426 23.6026098,10.9809546 C23.6737458,11.1606666 23.7729618,11.3132346 23.9002578,11.4386586 C24.0275538,11.5640826 24.1773138,11.6595546 24.3495378,11.7250746 C24.5217618,11.7905946 24.7070898,11.8233546 24.9055218,11.8233546 Z M25.2930258,10.0767786 L24.2877618,10.0767786 C24.3177138,9.88957856 24.3822978,9.75198656 24.4815138,9.66400256 C24.5807298,9.57601856 24.6958578,9.53202656 24.8268978,9.53202656 C24.9953778,9.53202656 25.1151858,9.58257056 25.1863218,9.68365856 C25.2574578,9.78474656 25.2930258,9.91578656 25.2930258,10.0767786 L25.2930258,10.0767786 Z M27.8146098,11.8233546 C27.9830898,11.8233546 28.1543778,11.7952746 28.3284738,11.7391146 C28.5025698,11.6829546 28.6607538,11.6062026 28.8030258,11.5088586 L28.8030258,11.5088586 L28.5278418,11.0090346 C28.3256658,11.1325866 28.1253618,11.1943626 27.9269298,11.1943626 C27.7397298,11.1943626 27.5815458,11.1466266 27.4523778,11.0511546 C27.3232098,10.9556826 27.2399058,10.8012426 27.2024658,10.5878346 L27.2024658,10.5878346 L28.8704178,10.5878346 C28.8779058,10.5541386 28.8853938,10.5064026 28.8928818,10.4446266 C28.9003698,10.3828506 28.9041138,10.3145226 28.9041138,10.2396426 C28.9041138,10.0486986 28.8797778,9.87179456 28.8311058,9.70893056 C28.7824338,9.54606656 28.7084898,9.40473056 28.6092738,9.28492256 C28.5100578,9.16511456 28.3865058,9.07151456 28.2386178,9.00412256 C28.0907298,8.93673056 27.9175698,8.90303456 27.7191378,8.90303456 C27.5506578,8.90303456 27.3877938,8.93673056 27.2305458,9.00412256 C27.0732978,9.07151456 26.9338338,9.16792256 26.8121538,9.29334656 C26.6904738,9.41877056 26.5921938,9.57227456 26.5173138,9.75385856 C26.4424338,9.93544256 26.4049938,10.1385546 26.4049938,10.3631946 C26.4049938,10.5953226 26.4405618,10.8012426 26.5116978,10.9809546 C26.5828338,11.1606666 26.6820498,11.3132346 26.8093458,11.4386586 C26.9366418,11.5640826 27.0864018,11.6595546 27.2586258,11.7250746 C27.4308498,11.7905946 27.6161778,11.8233546 27.8146098,11.8233546 Z M28.2021138,10.0767786 L27.1968498,10.0767786 C27.2268018,9.88957856 27.2913858,9.75198656 27.3906018,9.66400256 C27.4898178,9.57601856 27.6049458,9.53202656 27.7359858,9.53202656 C27.9044658,9.53202656 28.0242738,9.58257056 28.0954098,9.68365856 C28.1665458,9.78474656 28.2021138,9.91578656 28.2021138,10.0767786 L28.2021138,10.0767786 Z M30.4709778,11.8233546 C30.6057618,11.8233546 30.7386738,11.7905946 30.8697138,11.7250746 C31.0007538,11.6595546 31.1149458,11.5781226 31.2122898,11.4807786 L31.2122898,11.4807786 L31.2347538,11.4807786 L31.2909138,11.7559626 L31.9648338,11.7559626 L31.9648338,7.81914656 L31.1392818,7.81914656 L31.1392818,8.76825056 L31.1729778,9.19506656 C31.0756338,9.10521056 30.9764178,9.03407456 30.8753298,8.98165856 C30.7742418,8.92924256 30.6450738,8.90303456 30.4878258,8.90303456 C30.3418098,8.90303456 30.1986018,8.93673056 30.0582018,9.00412256 C29.9178018,9.07151456 29.7942498,9.16792256 29.6875458,9.29334656 C29.5808418,9.41877056 29.4947298,9.57133856 29.4292098,9.75105056 C29.3636898,9.93076256 29.3309298,10.1348106 29.3309298,10.3631946 C29.3309298,10.5915786 29.3580738,10.7956266 29.4123618,10.9753386 C29.4666498,11.1550506 29.5434018,11.3076186 29.6426178,11.4330426 C29.7418338,11.5584666 29.8616418,11.6548746 30.0020418,11.7222666 C30.1424418,11.7896586 30.2987538,11.8233546 30.4709778,11.8233546 Z M30.6843858,11.1494346 C30.5233938,11.1494346 30.3989058,11.0857866 30.3109218,10.9584906 C30.2229378,10.8311946 30.1789458,10.6290186 30.1789458,10.3519626 C30.1789458,10.0861386 30.2294898,9.89051456 30.3305778,9.76509056 C30.4316658,9.63966656 30.5477298,9.57695456 30.6787698,9.57695456 C30.7536498,9.57695456 30.8304018,9.59005856 30.9090258,9.61626656 C30.9876498,9.64247456 31.0644018,9.68927456 31.1392818,9.75666656 L31.1392818,9.75666656 L31.1392818,10.8967146 C31.0718898,10.9903146 31.0016898,11.0558346 30.9286818,11.0932746 C30.8556738,11.1307146 30.7742418,11.1494346 30.6843858,11.1494346 Z M34.1550738,11.8233546 C34.3048338,11.8233546 34.4499138,11.7896586 34.5903138,11.7222666 C34.7307138,11.6548746 34.8561378,11.5565946 34.9665858,11.4274266 C35.0770338,11.2982586 35.1650178,11.1400746 35.2305378,10.9528746 C35.2960578,10.7656746 35.3288178,10.5522666 35.3288178,10.3126506 C35.3288178,10.0992426 35.3035458,9.90549056 35.2530018,9.73139456 C35.2024578,9.55729856 35.1294498,9.40941056 35.0339778,9.28773056 C34.9385058,9.16605056 34.8233778,9.07151456 34.6885938,9.00412256 C34.5538098,8.93673056 34.4021778,8.90303456 34.2336978,8.90303456 C34.1026578,8.90303456 33.9744258,8.93017856 33.8490018,8.98446656 C33.7235778,9.03875456 33.6065778,9.11457056 33.4980018,9.21191456 L33.4980018,9.21191456 L33.5204658,8.78509856 L33.5204658,7.81914656 L32.6949138,7.81914656 L32.6949138,11.7559626 L33.3407538,11.7559626 L33.4081458,11.4639306 L33.4306098,11.4639306 C33.5391858,11.5837386 33.6561858,11.6735946 33.7816098,11.7334986 C33.9070338,11.7934026 34.0315218,11.8233546 34.1550738,11.8233546 Z M33.9641298,11.1494346 C33.8929938,11.1494346 33.8199858,11.1363306 33.7451058,11.1101226 C33.6702258,11.0839146 33.5953458,11.0371146 33.5204658,10.9697226 L33.5204658,10.9697226 L33.5204658,9.82967456 C33.6739698,9.66119456 33.8330898,9.57695456 33.9978258,9.57695456 C34.3198098,9.57695456 34.4808018,9.82780256 34.4808018,10.3294986 C34.4808018,10.6177866 34.4302578,10.8265146 34.3291698,10.9556826 C34.2280818,11.0848506 34.1064018,11.1494346 33.9641298,11.1494346 Z M36.6373458,11.8233546 C36.7945938,11.8233546 36.9396738,11.7905946 37.0725858,11.7250746 C37.2054978,11.6595546 37.3318578,11.5743786 37.4516658,11.4695466 L37.4516658,11.4695466 L37.4685138,11.4695466 L37.5302898,11.7559626 L38.2042098,11.7559626 L38.2042098,10.1610186 C38.2042098,9.73045856 38.1096738,9.41315456 37.9206018,9.20910656 C37.7315298,9.00505856 37.4572818,8.90303456 37.0978578,8.90303456 C36.8769618,8.90303456 36.6682338,8.93673056 36.4716738,9.00412256 C36.2751138,9.07151456 36.0869778,9.15949856 35.9072658,9.26807456 L35.9072658,9.26807456 L36.1992978,9.81282656 C36.3340818,9.73420256 36.4613778,9.67242656 36.5811858,9.62749856 C36.7009938,9.58257056 36.8208018,9.56010656 36.9406098,9.56010656 C37.0903698,9.56010656 37.1989458,9.59661056 37.2663378,9.66961856 C37.3337298,9.74262656 37.3711698,9.84090656 37.3786578,9.96445856 C36.8282898,10.0206186 36.4295538,10.1310666 36.1824498,10.2958026 C35.9353458,10.4605386 35.8117938,10.6889226 35.8117938,10.9809546 C35.8117938,11.1007626 35.8314498,11.2112106 35.8707618,11.3122986 C35.9100738,11.4133866 35.9652978,11.5023066 36.0364338,11.5790586 C36.1075698,11.6558106 36.1936818,11.7157146 36.2947698,11.7587706 C36.3958578,11.8018266 36.5100498,11.8233546 36.6373458,11.8233546 Z M36.9181458,11.1831306 C36.8208018,11.1831306 36.7431138,11.1616026 36.6850818,11.1185466 C36.6270498,11.0754906 36.5980338,11.0090346 36.5980338,10.9191786 C36.5980338,10.8106026 36.6541938,10.7170026 36.7665138,10.6383786 C36.8788338,10.5597546 37.0828818,10.4998506 37.3786578,10.4586666 L37.3786578,10.4586666 L37.3786578,10.9472586 C37.3037778,11.0221386 37.2326418,11.0801706 37.1652498,11.1213546 C37.0978578,11.1625386 37.0154898,11.1831306 36.9181458,11.1831306 Z M40.1248818,11.8233546 C40.2783858,11.8233546 40.4375058,11.7952746 40.6022418,11.7391146 C40.7669778,11.6829546 40.9167378,11.5949706 41.0515218,11.4751626 L41.0515218,11.4751626 L40.7201778,10.9528746 C40.6527858,11.0052906 40.5779058,11.0520906 40.4955378,11.0932746 C40.4131698,11.1344586 40.3214418,11.1550506 40.2203538,11.1550506 C40.0406418,11.1550506 39.8918178,11.0839146 39.7738818,10.9416426 C39.6559458,10.7993706 39.5969778,10.6065546 39.5969778,10.3631946 C39.5969778,10.1198346 39.6550098,9.92701856 39.7710738,9.78474656 C39.8871378,9.64247456 40.0462578,9.57133856 40.2484338,9.57133856 C40.3757298,9.57133856 40.5048978,9.62562656 40.6359378,9.73420256 L40.6359378,9.73420256 L41.0122098,9.22314656 C40.9186098,9.12580256 40.8025458,9.04811456 40.6640178,8.99008256 C40.5254898,8.93205056 40.3701138,8.90303456 40.1978898,8.90303456 C40.0069458,8.90303456 39.8234898,8.93579456 39.6475218,9.00131456 C39.4715538,9.06683456 39.3171138,9.16137056 39.1842018,9.28492256 C39.0512898,9.40847456 38.9455218,9.56104256 38.8668978,9.74262656 C38.7882738,9.92421056 38.7489618,10.1310666 38.7489618,10.3631946 C38.7489618,10.5953226 38.7845298,10.8021786 38.8556658,10.9837626 C38.9268018,11.1653466 39.0241458,11.3179146 39.1476978,11.4414666 C39.2712498,11.5650186 39.4163298,11.6595546 39.5829378,11.7250746 C39.7495458,11.7905946 39.9301938,11.8233546 40.1248818,11.8233546 Z M42.3375858,11.7559626 L42.3375858,11.0708106 L42.6913938,10.6720746 L43.3203858,11.7559626 L44.2133298,11.7559626 L43.1631378,10.1160906 L44.1403218,8.97042656 L43.2417618,8.97042656 L42.3600498,10.0767786 L42.3375858,10.0767786 L42.3375858,7.81914656 L41.5344978,7.81914656 L41.5344978,11.7559626 L42.3375858,11.7559626 Z" id="Leavefeedback" fill="#FFFFFF" fill-rule="nonzero"></path>
                </g>
                <g id="cursor" transform="translate(99.871971, 59.965394) scale(-1, 1) rotate(-28.000000) translate(-99.871971, -59.965394) ">
                    <use fill="black" fill-opacity="1" filter="url(#filter-4)" xlink:href="#path-3"></use>
                    <use stroke="#FFFFFF" stroke-width="1.3" fill="#000000" fill-rule="evenodd" xlink:href="#path-3"></use>
                </g>
            </g>
        </g>
    </g>
</svg>